<svg width="24" height="24" xmlns="http://www.w3.org/2000/svg">

 <g>
  <title>background</title>
  <rect fill="none" id="canvas_background" height="402" width="582" y="-1" x="-1"/>
 </g>
 <g>
  <title fill="#ff0000">Layer 1</title>
  <path fill="#ff0000" id="svg_2" d="m23.1,3.9c-1.1,-1.1 -3,-1.1 -4.1,0l-1.4,1.4l-0.6,-0.7c-0.4,-0.4 -1,-0.4 -1.4,0l-0.7,0.7c-1.5,-0.8 -3.1,-1.3 -4.9,-1.3c-5.5,0 -10,4.5 -10,10s4.5,10 10,10s10,-4.5 10,-10c0,-2 -0.6,-3.8 -1.6,-5.4l0.6,-0.6c0.4,-0.4 0.4,-1 0,-1.4l-0.7,-0.6l1.4,-1.4c0.8,-0.8 2,-0.8 2.8,0c0.8,0.8 0.8,2 0,2.8c-1.1,1.1 -1.1,3 0,4.1l0.7,-0.7c-0.8,-0.8 -0.8,-2 0,-2.7c1.1,-1.2 1.1,-3.1 -0.1,-4.2zm-13.1,18.1c-4.4,0 -8,-3.6 -8,-8s3.6,-8 8,-8s8,3.6 8,8s-3.6,8 -8,8zm5.7,-16.2l0.5,-0.5l2.1,2.1l-0.5,0.5c-0.6,-0.8 -1.3,-1.5 -2.1,-2.1z"/>
  <path fill="#ff0000" id="svg_3" d="m10,7l0,1c3.3,0 6,2.7 6,6l1,0c0,-3.9 -3.1,-7 -7,-7z"/>
 </g>
</svg>